<?xml version="1.0" encoding="iso-8859-1"?>
<!-- Generator: Adobe Illustrator 19.0.0, SVG Export Plug-In . SVG Version: 6.00 Build 0)  -->
<svg version="1.1" id="Layer_1" xmlns="http://www.w3.org/2000/svg" xmlns:xlink="http://www.w3.org/1999/xlink" x="0px" y="0px"
	 viewBox="0 0 511.999 511.999" style="enable-background:new 0 0 511.999 511.999;" xml:space="preserve">
<g>
	<g>
		<g>
			<circle cx="409.454" cy="345.948" r="7.923"/>
			<circle cx="374.392" cy="292.516" r="7.923"/>
			<circle cx="314.265" cy="341.72" r="7.923"/>
			<path d="M484.787,168.77l7.618-7.618c10.702-10.703,10.702-28.116,0-38.818c-5.185-5.185-12.078-8.039-19.41-8.039
				c-7.332,0-14.225,2.856-19.409,8.039l-7.618,7.618l-6.768-6.768l7.618-7.618c10.703-10.702,10.703-28.116,0-38.818
				c-10.703-10.703-28.116-10.702-38.818,0l-7.617,7.619l-6.767-6.767l7.618-7.618c10.702-10.703,10.702-28.116-0.001-38.819
				c-10.702-10.701-28.116-10.703-38.818,0l-7.618,7.618l-2.399-2.399c-4.489-4.49-10.458-6.962-16.808-6.962
				c-6.349,0-12.319,2.473-16.807,6.962c-4.176,4.176-6.607,9.632-6.926,15.484c-4.772,0.26-9.267,1.945-13.033,4.815
				c-35.726-11.387-75.199-1.991-101.82,24.63l-35.703,35.702c-10.959,10.959-28.792,10.959-39.752,0
				c-5.298-5.298-8.216-12.357-8.216-19.875s2.918-14.578,8.216-19.876l36.684-36.684c9.268-9.267,9.268-24.347,0.001-33.614
				C153.746,2.472,147.776,0,141.427,0c-6.349,0-12.319,2.472-16.808,6.962L87.936,43.646C73.668,57.913,65.811,76.91,65.811,97.137
				s7.857,39.224,22.125,53.492c14.268,14.267,33.265,22.125,53.491,22.125s39.224-7.858,53.491-22.125l35.703-35.703
				c9.772-9.771,22.685-15.248,36.46-15.522c0.327,5.613,2.605,11.133,6.885,15.412l2.399,2.399l-60.12,60.12
				c-8.924,8.924-13.839,20.789-13.839,33.409s4.914,24.486,13.839,33.409c1.369,1.37,2.124,3.19,2.124,5.128
				c0,1.938-0.754,3.759-2.124,5.129L22.527,448.126c-7.068,7.067-10.959,16.463-10.959,26.457c0,9.994,3.892,19.391,10.959,26.457
				c7.066,7.067,16.463,10.959,26.458,10.959c9.994,0,19.39-3.892,26.457-10.959l193.717-193.716c1.384-1.385,3.218-2.09,5.06-2.109
				c-0.119,0.909-0.179,1.817-0.164,2.726c0.052,2.215,0.425,4.307,1.113,6.246c-1.683,1.235-3.171,2.755-4.443,4.536
				c-0.033,0.045-0.064,0.092-0.096,0.138c-1.621,2.375-2.733,5.188-3.219,8.137c-0.01,0.055-0.018,0.11-0.025,0.166
				c-0.753,5.262,0.566,10.455,3.641,14.557c-3.075,4.102-4.396,9.295-3.641,14.557c0.007,0.056,0.017,0.111,0.025,0.166
				c0.487,2.95,1.599,5.764,3.22,8.138c0.031,0.047,0.062,0.091,0.094,0.136c1.272,1.781,2.762,3.301,4.444,4.537
				c-0.688,1.942-1.062,4.044-1.115,6.295c-0.048,2.828,0.581,5.715,1.869,8.582c0.039,0.088,0.08,0.174,0.123,0.261
				c2.356,4.773,6.369,8.315,11.23,9.97c-0.079,2.103,0.179,4.245,0.761,6.292c0.031,0.108,0.064,0.216,0.099,0.322
				c0.976,2.945,2.473,5.492,4.443,7.562c2.164,2.281,4.644,3.947,7.372,4.954c1.302,0.494,2.649,0.854,4.007,1.068
				c0.041,0.006,0.083,0.013,0.125,0.019c0.694,0.098,1.403,0.156,2.124,0.176c1.314,5,4.649,9.38,9.22,11.984
				c1.421,0.807,2.772,1.397,4.225,1.832c1.351,0.387,2.737,0.638,4.12,0.747c2.136,0.185,4.362-0.031,6.55-0.633
				c1.178,1.908,2.662,3.583,4.365,4.913c1.086,0.863,2.272,1.625,3.526,2.263c0.057,0.03,0.115,0.058,0.174,0.086
				c1.271,0.608,2.682,1.098,4.203,1.454c5.137,1.199,10.576,0.245,14.906-2.521c1.698,1.482,3.602,2.642,5.596,3.396
				c2.349,0.917,4.743,1.377,7.086,1.375c0.55,0,1.098-0.025,1.641-0.076c1.596-0.128,3.035-0.395,4.398-0.818
				c0.05-0.016,0.099-0.032,0.149-0.048c1.335-0.444,2.623-1.019,3.83-1.712c1.883-1.062,3.598-2.493,5.04-4.192
				c4.71,2.086,10.191,2.216,15.059,0.29c2.745-1.047,5.271-2.764,7.314-4.973c1.471-1.551,2.683-3.426,3.57-5.502
				c2.209,0.265,4.434,0.149,6.499-0.343c1.45-0.331,2.83-0.8,4.099-1.394c0.061-0.029,0.123-0.059,0.184-0.09
				c1.263-0.633,2.474-1.4,3.598-2.279c2.255-1.724,4.122-4.031,5.548-6.859c0.027-0.054,0.054-0.108,0.08-0.163
				c0.916-1.925,1.509-4.046,1.746-6.224c5.042-0.902,9.547-3.814,12.587-8.202l0.07-0.102c1.653-2.469,2.759-5.297,3.197-8.176
				c0.01-0.062,0.018-0.125,0.025-0.187c0.276-2.161,0.22-4.272-0.176-6.332c1.835-0.96,3.535-2.239,5.07-3.816
				c0.031-0.031,0.061-0.063,0.091-0.094c1.981-2.105,3.472-4.654,4.431-7.572c0.021-0.064,0.041-0.129,0.061-0.194
				c1.531-5.098,1.004-10.429-1.44-14.966c1.477-1.472,2.728-3.208,3.749-5.218c1.251-2.53,1.928-5.379,2.015-8.469
				c0.004-0.148,0.004-0.296,0-0.444c-0.087-3.09-0.765-5.939-2.016-8.469c-0.014-0.026-0.026-0.054-0.04-0.081
				c-0.991-1.947-2.233-3.668-3.706-5.134c2.438-4.515,2.972-9.859,1.438-14.968c-0.02-0.064-0.04-0.13-0.061-0.194
				c-0.959-2.92-2.45-5.467-4.433-7.572c-0.029-0.031-0.058-0.062-0.088-0.092c-1.534-1.578-3.233-2.855-5.067-3.816
				c0.392-2.038,0.45-4.16,0.172-6.333c-0.007-0.062-0.017-0.125-0.025-0.187c-0.437-2.88-1.543-5.707-3.197-8.177
				c-0.022-0.034-0.045-0.068-0.069-0.1c-3.038-4.386-7.541-7.298-12.587-8.203c-0.238-2.178-0.83-4.299-1.746-6.224
				c-0.025-0.055-0.053-0.11-0.08-0.164c-1.426-2.828-3.293-5.135-5.548-6.859c-1.124-0.879-2.335-1.646-3.598-2.279
				c-0.062-0.031-0.125-0.061-0.188-0.091c-1.27-0.595-2.647-1.063-4.02-1.375c-2.124-0.506-4.367-0.624-6.574-0.361
				c-0.885-2.076-2.099-3.95-3.569-5.5c-1.534-1.656-3.338-3.037-5.303-4.065l4.046-4.046l2.399,2.398
				c4.49,4.49,10.459,6.962,16.808,6.962c6.349,0,12.319-2.473,16.808-6.962c4.176-4.176,6.607-9.632,6.926-15.484
				c5.852-0.319,11.309-2.75,15.484-6.926c4.176-4.176,6.607-9.632,6.926-15.484c5.852-0.319,11.309-2.75,15.484-6.926
				c4.489-4.489,6.962-10.459,6.962-16.808c0-6.349-2.472-12.318-6.962-16.808L484.787,168.77z M419.206,87.952
				c4.525-4.524,11.886-4.523,16.408,0c4.524,4.524,4.524,11.884,0,16.408l-7.618,7.618L411.588,95.57L419.206,87.952z
				 M373.621,42.367c4.524-4.524,11.884-4.524,16.408,0c4.524,4.524,4.524,11.885,0,16.408l-7.618,7.618l-16.408-16.408
				L373.621,42.367z M273.966,81.201c-0.772,0.772-1.456,1.596-2.099,2.442c-1.25-0.07-2.489-0.112-3.708-0.112
				c-18.413,0-35.723,7.17-48.743,20.189l-35.703,35.703c-11.274,11.274-26.292,17.484-42.286,17.484
				c-15.994,0-31.011-6.209-42.285-17.483c-11.274-11.275-17.484-26.292-17.484-42.286c0-15.994,6.209-31.011,17.484-42.285
				l36.684-36.684c1.496-1.496,3.485-2.32,5.602-2.32c2.117,0,4.105,0.824,5.602,2.321s2.321,3.486,2.321,5.602
				s-0.824,4.106-2.321,5.602l-36.684,36.684c-8.291,8.291-12.857,19.329-12.857,31.081s4.566,22.79,12.857,31.081
				c17.139,17.137,45.025,17.137,62.162-0.001l35.703-35.702c21.426-21.427,52.746-29.605,81.76-21.922
				c-0.26,1.215-0.442,2.443-0.509,3.68C283.605,74.59,278.144,77.022,273.966,81.201z M257.954,296.118L64.236,489.835
				c-4.075,4.074-9.491,6.317-15.253,6.317c-5.762,0-11.179-2.244-15.253-6.317c-4.074-4.074-6.317-9.491-6.317-15.253
				s2.244-11.179,6.317-15.253l193.718-193.718c4.363-4.363,6.765-10.164,6.765-16.333s-2.403-11.97-6.765-16.332
				c-12.243-12.244-12.243-32.165,0-44.409l60.12-60.12l16.408,16.408l-8.717,8.716c-8.044,8.045-8.044,21.134,0,29.178
				c4.023,4.022,9.306,6.032,14.589,6.032c5.283,0,10.567-2.011,14.589-6.033l8.715-8.717l16.408,16.408l-8.715,8.715
				c-3.897,3.897-6.043,9.078-6.043,14.589c0,5.511,2.146,10.692,6.043,14.588c3.897,3.897,9.078,6.044,14.589,6.044
				c5.511,0,10.692-2.147,14.589-6.044l8.715-8.715l16.408,16.408l-12.285,12.285c-0.841-0.698-1.736-1.318-2.672-1.846
				c-1.204-0.692-2.491-1.267-3.824-1.709c-0.05-0.017-0.099-0.033-0.149-0.049c-1.361-0.422-2.797-0.69-4.295-0.81
				c-2.959-0.277-5.93,0.16-8.832,1.292c-1.998,0.757-3.905,1.918-5.598,3.398c-4.357-2.774-9.779-3.719-14.909-2.522
				c-1.537,0.36-2.911,0.837-4.2,1.454c-0.056,0.026-0.111,0.054-0.167,0.082c-1.255,0.638-2.442,1.4-3.528,2.264
				c-1.704,1.33-3.189,3.006-4.366,4.912c-2.177-0.599-4.407-0.814-6.55-0.632c-1.384,0.109-2.771,0.36-4.218,0.775
				c-1.362,0.41-2.713,0.999-4.136,1.809c-4.564,2.599-7.9,6.981-9.212,11.978c-0.721,0.02-1.429,0.078-2.123,0.176
				c-0.043,0.006-0.087,0.013-0.13,0.02c-1.355,0.214-2.701,0.574-4.001,1.067c-2.729,1.007-5.209,2.674-7.366,4.947
				c-1.978,2.078-3.475,4.625-4.45,7.569c-0.035,0.107-0.068,0.214-0.099,0.322c-0.59,2.072-0.846,4.172-0.762,6.29
				c-1.486,0.505-2.883,1.209-4.191,2.052C274.683,287.696,264.663,289.411,257.954,296.118z M306.466,164.748l8.716-8.717
				l6.767,6.768l-8.715,8.715c-1.867,1.867-4.903,1.866-6.767,0C304.6,169.65,304.6,166.614,306.466,164.748z M350.65,213.717
				c0-1.278,0.498-2.479,1.402-3.384l8.716-8.716l6.767,6.767l-8.717,8.717c-0.903,0.904-2.105,1.402-3.384,1.402
				s-2.479-0.498-3.384-1.403C351.148,216.197,350.65,214.996,350.65,213.717z M404.453,275.312c2.449,1.484,5.329,1.958,8.11,1.333
				c0.024-0.005,0.096-0.021,0.12-0.027c0.49-0.115,0.988-0.125,1.472-0.008c0.308,0.07,0.581,0.155,0.811,0.256
				c0.292,0.154,0.575,0.339,0.843,0.55c0.04,0.032,0.08,0.063,0.121,0.094c0.184,0.139,0.55,0.492,0.977,1.312
				c0.183,0.413,0.287,0.921,0.297,1.447c-0.013,2.859,1.075,5.575,3.064,7.652c0.667,0.697,1.318,1.408,1.958,2.127
				c1.938,2.182,4.601,3.486,7.428,3.669c0.031,0.002,0.09,0.006,0.12,0.008c1.006,0.063,2.005,0.668,2.685,1.622
				c0.329,0.505,0.551,1.053,0.646,1.597c0.066,0.595,0.03,1.117-0.101,1.534c-0.885,2.759-0.65,5.711,0.667,8.317
				c0.433,0.856,0.849,1.72,1.251,2.594c1.216,2.646,3.38,4.669,6.09,5.696c0.009,0.003,0.022,0.008,0.036,0.013
				c0.406,0.162,0.825,0.46,1.248,0.884c0.338,0.374,0.629,0.894,0.843,1.513c0.311,1.121,0.153,2.278-0.433,3.12
				c-1.661,2.375-2.308,5.263-1.822,8.137c0.159,0.943,0.303,1.892,0.429,2.848c0.38,2.894,1.851,5.467,4.106,7.221
				c0.375,0.297,0.708,0.724,0.991,1.267c0.193,0.407,0.317,0.98,0.355,1.635c-0.039,0.673-0.166,1.253-0.331,1.588
				c-0.287,0.566-0.629,1.008-0.979,1.286c-2.29,1.781-3.762,4.356-4.142,7.249c-0.126,0.955-0.268,1.904-0.429,2.849
				c-0.486,2.87,0.162,5.76,1.83,8.144c0.579,0.832,0.736,1.988,0.426,3.109c-0.214,0.618-0.504,1.139-0.843,1.513
				c-0.434,0.436-0.864,0.737-1.279,0.896c-2.715,1.026-4.88,3.051-6.092,5.697c-0.401,0.874-0.819,1.739-1.256,2.602
				c-1.312,2.6-1.548,5.552-0.668,8.291c0.136,0.435,0.172,0.958,0.107,1.553c-0.096,0.543-0.318,1.092-0.646,1.597
				c-0.679,0.954-1.68,1.559-2.731,1.625c-2.897,0.187-5.559,1.491-7.503,3.674c-0.639,0.72-1.291,1.43-1.955,2.124
				c-1.989,2.078-3.076,4.794-3.065,7.653c-0.009,0.526-0.114,1.034-0.296,1.446c-0.427,0.82-0.793,1.173-0.977,1.312
				c-0.041,0.031-0.081,0.062-0.121,0.094c-0.268,0.211-0.551,0.396-0.844,0.55c-0.229,0.099-0.509,0.186-0.885,0.273
				c-0.412,0.098-0.908,0.088-1.396-0.025c-0.025-0.005-0.097-0.022-0.123-0.027c-2.782-0.622-5.659-0.15-8.105,1.331
				c-0.813,0.492-1.636,0.971-2.474,1.437c-2.515,1.4-4.369,3.676-5.221,6.409c-0.165,0.528-0.411,0.998-0.658,1.257
				c-0.038,0.04-0.076,0.08-0.113,0.12c-0.279,0.304-0.741,0.715-1.354,0.947c-0.052,0.02-0.105,0.04-0.156,0.061
				c-1.043,0.417-2.211,0.345-3.124-0.191c-0.024-0.015-0.086-0.05-0.11-0.063c-2.458-1.409-5.337-1.812-8.101-1.132
				c-0.937,0.229-1.881,0.442-2.833,0.637c-2.798,0.576-5.23,2.184-6.827,4.497c-0.019,0.027-0.067,0.095-0.086,0.124
				c-0.293,0.432-0.645,0.778-0.994,0.972c-0.032,0.018-0.064,0.036-0.096,0.055c-0.264,0.153-0.549,0.283-0.85,0.389
				c-0.17,0.046-0.463,0.104-1.007,0.148c-0.601,0.058-1.212-0.123-1.617-0.282c-0.042-0.017-0.083-0.033-0.126-0.048
				c-0.329-0.124-0.748-0.436-1.174-0.894c-1.944-2.075-4.586-3.303-7.44-3.459c-0.967-0.053-1.928-0.121-2.886-0.209
				c-0.341-0.032-0.681-0.047-1.019-0.047c-2.475,0-4.867,0.826-6.846,2.392c-0.031,0.023-0.061,0.049-0.091,0.073
				c-0.819,0.666-1.962,0.911-3.052,0.656c-0.433-0.101-0.718-0.205-0.895-0.282c-0.279-0.15-0.539-0.32-0.773-0.507
				c-0.029-0.023-0.058-0.045-0.088-0.069c-0.308-0.24-0.615-0.648-0.884-1.21c-1.242-2.553-3.401-4.506-6.076-5.497
				c-0.91-0.338-1.812-0.691-2.703-1.06c-2.638-1.092-5.55-1.128-8.247-0.08c-0.513,0.2-1.021,0.294-1.394,0.262
				c-0.039-0.003-0.078-0.006-0.117-0.01c-0.332-0.025-0.671-0.087-0.915-0.156c-0.113-0.034-0.376-0.132-0.848-0.399
				c-0.973-0.555-1.644-1.515-1.804-2.634c-0.418-2.818-1.896-5.335-4.164-7.089c-0.764-0.591-1.513-1.197-2.254-1.816
				c-2.212-1.846-5-2.745-7.942-2.525c-0.331,0.025-0.576,0.013-0.735-0.005c-0.263-0.047-0.528-0.12-0.791-0.221
				c-0.04-0.016-0.081-0.031-0.121-0.045c-0.419-0.153-0.906-0.507-1.38-1.007c-0.32-0.337-0.605-0.84-0.83-1.462
				c-0.131-0.528-0.164-1.061-0.097-1.543c0.44-2.834-0.232-5.686-1.898-8.036c-0.555-0.785-1.096-1.58-1.621-2.382
				c-1.593-2.438-4.031-4.119-6.893-4.739c-0.976-0.212-1.87-0.942-2.412-1.965c-0.371-0.868-0.421-1.418-0.418-1.626
				c0.016-0.657,0.118-1.18,0.279-1.502c0.014-0.026,0.041-0.08,0.054-0.107c1.286-2.597,1.494-5.549,0.581-8.32
				c-0.3-0.911-0.584-1.828-0.853-2.756c-0.795-2.756-2.588-5.051-5.124-6.513c-0.415-0.24-0.805-0.604-1.16-1.085
				c-0.292-0.45-0.504-1.012-0.617-1.634c-0.141-1.136,0.18-2.245,0.865-2.991c0.004-0.004,0.01-0.01,0.014-0.015
				c2.006-2.111,3.106-4.995,3.016-7.905c-0.013-0.438-0.023-0.879-0.023-1.32c0-0.443,0.011-0.882,0.023-1.313
				c0.09-2.916-1.009-5.8-3.014-7.91c-0.005-0.005-0.011-0.012-0.016-0.017c-0.687-0.746-1.007-1.855-0.866-2.991
				c0.113-0.622,0.325-1.184,0.617-1.634c0.355-0.482,0.743-0.844,1.112-1.057c2.527-1.419,4.363-3.742,5.172-6.543
				c0.266-0.925,0.55-1.842,0.853-2.757c0.911-2.766,0.705-5.719-0.611-8.372c-0.187-0.374-0.289-0.897-0.304-1.502
				c-0.004-0.257,0.045-0.808,0.417-1.677c0.542-1.023,1.437-1.754,2.446-1.972c2.831-0.615,5.267-2.296,6.859-4.731
				c0.526-0.804,1.065-1.599,1.62-2.381c1.667-2.354,2.34-5.203,1.901-8.033c-0.068-0.49-0.035-1.023,0.096-1.55
				c0.224-0.622,0.509-1.126,0.837-1.471c0.466-0.491,0.954-0.845,1.372-0.998c0.039-0.015,0.078-0.03,0.117-0.044
				c0.264-0.101,0.532-0.176,0.797-0.223c0.162-0.019,0.414-0.031,0.81,0c2.859,0.212,5.655-0.684,7.868-2.531
				c0.741-0.619,1.491-1.225,2.251-1.814c2.268-1.754,3.748-4.271,4.16-7.046c0.005-0.037,0.012-0.073,0.017-0.11
				c0.151-1.053,0.822-2.013,1.789-2.564c0.479-0.271,0.744-0.371,0.761-0.376c0.337-0.096,0.677-0.158,1.008-0.184
				c0.039-0.002,0.078-0.006,0.117-0.009c0.374-0.036,0.88,0.062,1.444,0.281c2.645,1.029,5.557,0.993,8.196-0.098
				c0.892-0.37,1.793-0.723,2.702-1.06c2.674-0.991,4.832-2.941,6.073-5.486c0.008-0.019,0.04-0.082,0.049-0.101
				c0.226-0.472,0.532-0.88,0.839-1.119c0.031-0.024,0.061-0.048,0.092-0.072c0.233-0.187,0.493-0.357,0.771-0.506
				c0.175-0.077,0.458-0.18,0.885-0.28c1.098-0.256,2.243-0.012,3.062,0.654c0.053,0.043,0.108,0.087,0.164,0.13
				c2.227,1.73,5.005,2.543,7.828,2.284c0.932-0.084,1.869-0.152,2.814-0.203c2.873-0.157,5.536-1.393,7.528-3.516
				c0.374-0.401,0.793-0.715,1.124-0.839c0.042-0.016,0.083-0.032,0.124-0.048c0.406-0.16,1.021-0.336,1.716-0.274
				c0.455,0.037,0.74,0.093,0.909,0.139c0.301,0.106,0.586,0.237,0.85,0.389c0.033,0.019,0.066,0.037,0.098,0.056
				c0.346,0.193,0.699,0.539,0.993,0.972c0.011,0.016,0.05,0.072,0.06,0.088c1.615,2.345,4.048,3.955,6.851,4.532
				c0.949,0.195,1.893,0.407,2.831,0.638c2.766,0.679,5.643,0.277,8.12-1.142c0.031-0.018,0.061-0.036,0.092-0.054
				c0.915-0.538,2.082-0.61,3.127-0.191c0.052,0.021,0.104,0.041,0.155,0.06c0.614,0.23,1.075,0.642,1.355,0.948
				c0.037,0.04,0.075,0.08,0.112,0.119c0.247,0.259,0.493,0.728,0.672,1.303c0.844,2.708,2.681,4.961,5.173,6.345
				C402.795,274.328,403.631,274.814,404.453,275.312z M431.161,238.397c-1.496,1.497-3.485,2.32-5.602,2.32
				c-2.116,0-4.105-0.824-5.602-2.321L285.17,103.611c-3.089-3.089-3.089-8.115,0-11.205c1.496-1.496,3.485-2.32,5.601-2.32
				c2.117,0,4.106,0.824,5.603,2.321l134.787,134.787c1.497,1.497,2.321,3.486,2.321,5.602
				C433.482,234.911,432.658,236.901,431.161,238.397z M453.571,215.989c-1.496,1.496-3.485,2.32-5.602,2.32
				c-2.116,0-4.106-0.824-5.602-2.321L307.58,81.201c-1.497-1.497-2.321-3.486-2.321-5.602c0-2.116,0.824-4.106,2.321-5.603
				c1.496-1.496,3.485-2.32,5.601-2.32c2.116,0,4.106,0.824,5.603,2.321l134.787,134.787c1.497,1.497,2.321,3.486,2.321,5.602
				C455.892,212.501,455.068,214.492,453.571,215.989z M475.981,193.579c-1.496,1.496-3.485,2.32-5.602,2.32
				c-2.116,0-4.105-0.824-5.602-2.321L329.99,58.791c-1.497-1.497-2.321-3.486-2.321-5.602s0.824-4.106,2.321-5.603
				c1.496-1.496,3.485-2.32,5.602-2.32s4.106,0.824,5.602,2.321l134.787,134.787c1.497,1.497,2.321,3.486,2.321,5.602
				C478.302,190.091,477.478,192.082,475.981,193.579z M481.201,149.946l-7.618,7.618l-16.408-16.408l7.618-7.618
				c2.191-2.192,5.105-3.398,8.203-3.398c3.099,0,6.012,1.206,8.204,3.398C485.723,138.063,485.723,145.423,481.201,149.946z"/>
			<circle cx="425.3" cy="319.895" r="7.923"/>
			<circle cx="366.469" cy="338.025" r="7.923"/>
			<circle cx="350.623" cy="389.794" r="7.923"/>
		</g>
	</g>
</g>
<g>
</g>
<g>
</g>
<g>
</g>
<g>
</g>
<g>
</g>
<g>
</g>
<g>
</g>
<g>
</g>
<g>
</g>
<g>
</g>
<g>
</g>
<g>
</g>
<g>
</g>
<g>
</g>
<g>
</g>
</svg>
